<svg width="146" height="48" viewBox="0 0 146 48" fill="none" xmlns="http://www.w3.org/2000/svg">
<rect x="0.5" y="0.5" width="145" height="47" rx="15.5" stroke="#ADADAD"/>
<path d="M23.5059 31H31.8859V28.718H26.2737V17.9091H23.5059V31ZM38.3421 31.1918C40.7711 31.1918 42.4075 30.0092 42.791 28.1875L40.2725 28.0213C39.9977 28.7692 39.2946 29.1591 38.3869 29.1591C37.0254 29.1591 36.1624 28.2578 36.1624 26.794V26.7876H42.8485V26.0398C42.8485 22.7031 40.8286 21.054 38.2335 21.054C35.3443 21.054 33.4714 23.1058 33.4714 26.1357C33.4714 29.2486 35.3187 31.1918 38.3421 31.1918ZM36.1624 25.1001C36.22 23.9815 37.0701 23.0866 38.2782 23.0866C39.4607 23.0866 40.2789 23.9304 40.2853 25.1001H36.1624ZM47.6252 31.1854C49.0762 31.1854 50.0159 30.5526 50.4953 29.6385H50.572V31H53.1543V24.3778C53.1543 22.0384 51.1728 21.054 48.9867 21.054C46.6345 21.054 45.0876 22.179 44.7105 23.9688L47.2289 24.1733C47.4143 23.5213 47.996 23.0419 48.974 23.0419C49.9008 23.0419 50.4313 23.5085 50.4313 24.3139V24.3523C50.4313 24.9851 49.7602 25.0682 48.0535 25.2344C46.1103 25.4134 44.3653 26.0653 44.3653 28.2578C44.3653 30.201 45.7524 31.1854 47.6252 31.1854ZM48.4051 29.3061C47.5677 29.3061 46.9668 28.9162 46.9668 28.1683C46.9668 27.4013 47.5997 27.0241 48.5585 26.8899C49.1529 26.8068 50.1245 26.6662 50.4505 26.4489V27.4908C50.4505 28.5199 49.6004 29.3061 48.4051 29.3061ZM55.4669 31H58.1899V25.4453C58.1899 24.2372 59.072 23.4062 60.2737 23.4062C60.6509 23.4062 61.1686 23.4702 61.4243 23.5533V21.1371C61.1814 21.0795 60.8426 21.0412 60.5678 21.0412C59.4683 21.0412 58.5671 21.6804 58.2091 22.8949H58.1068V21.1818H55.4669V31ZM65.7552 25.3239C65.7616 24.0582 66.5158 23.3168 67.6153 23.3168C68.7083 23.3168 69.3667 24.0327 69.3603 25.2344V31H72.0833V24.7486C72.0833 22.4602 70.741 21.054 68.6955 21.054C67.2381 21.054 66.1834 21.7699 65.7424 22.9141H65.6273V21.1818H63.0322V31H65.7552V25.3239ZM78.7954 31H81.5184V25.1065C81.5184 24.0199 82.2088 23.2976 83.1165 23.2976C84.0113 23.2976 84.6122 23.9112 84.6122 24.8764V31H87.2521V25.0043C87.2521 23.9879 87.8338 23.2976 88.8246 23.2976C89.6939 23.2976 90.3459 23.8409 90.3459 24.9339V31H93.0625V24.397C93.0625 22.2685 91.7969 21.054 89.9687 21.054C88.5305 21.054 87.4119 21.7891 87.0092 22.9141H86.9069C86.5937 21.7763 85.5902 21.054 84.2415 21.054C82.9183 21.054 81.9148 21.7571 81.5057 22.9141H81.3906V21.1818H78.7954V31ZM99.8495 31.1918C102.828 31.1918 104.682 29.1527 104.682 26.1293C104.682 23.0866 102.828 21.054 99.8495 21.054C96.8708 21.054 95.0171 23.0866 95.0171 26.1293C95.0171 29.1527 96.8708 31.1918 99.8495 31.1918ZM99.8623 29.0824C98.488 29.0824 97.7849 27.8232 97.7849 26.1101C97.7849 24.397 98.488 23.1314 99.8623 23.1314C101.211 23.1314 101.914 24.397 101.914 26.1101C101.914 27.8232 101.211 29.0824 99.8623 29.0824ZM106.652 31H109.375V25.4453C109.375 24.2372 110.258 23.4062 111.459 23.4062C111.836 23.4062 112.354 23.4702 112.61 23.5533V21.1371C112.367 21.0795 112.028 21.0412 111.753 21.0412C110.654 21.0412 109.753 21.6804 109.395 22.8949H109.292V21.1818H106.652V31ZM118.235 31.1918C120.664 31.1918 122.3 30.0092 122.684 28.1875L120.166 28.0213C119.891 28.7692 119.188 29.1591 118.28 29.1591C116.918 29.1591 116.055 28.2578 116.055 26.794V26.7876H122.741V26.0398C122.741 22.7031 120.722 21.054 118.126 21.054C115.237 21.054 113.364 23.1058 113.364 26.1357C113.364 29.2486 115.212 31.1918 118.235 31.1918ZM116.055 25.1001C116.113 23.9815 116.963 23.0866 118.171 23.0866C119.354 23.0866 120.172 23.9304 120.178 25.1001H116.055Z" fill="#6C5CE7"/>
</svg>
